<?xml version="1.0" encoding="utf-8"?>
<!-- Generator: Adobe Illustrator 25.2.3, SVG Export Plug-In . SVG Version: 6.00 Build 0)  -->
<svg version="1.1" id="Layer_1" xmlns="http://www.w3.org/2000/svg" xmlns:xlink="http://www.w3.org/1999/xlink" x="0px" y="0px"
	 viewBox="0 0 128 128" style="enable-background:new 0 0 128 128;" xml:space="preserve">
<style type="text/css">
	.st0{fill:#232323;}
	.st1{fill:#FFF7EE;}
</style>
<circle class="st0" cx="64.7" cy="64" r="64"/>
<g>
	<path class="st1" d="M87.3,50.6c0,10.8-7.1,15-16.2,16.1l-0.9,7.3H57.9L57.2,61c10.8-0.9,14.6-3.7,14.6-8.2c0-3.7-2.4-5.9-7.3-5.9
		s-8.1,2.9-8.5,8.6L42,50.1c1.3-8.5,8.1-15,23.5-15C78.2,35.2,87.3,39.9,87.3,50.6z M72.4,85.6c0,4.6-3.1,7.2-8.2,7.2
		c-5.2,0-8.2-2.6-8.2-7.2c0-4.5,3.1-7.1,8.2-7.1C69.3,78.5,72.4,81.1,72.4,85.6z"/>
</g>
</svg>
