<?xml version="1.0" encoding="utf-8"?>
<!-- Generator: Adobe Illustrator 25.2.3, SVG Export Plug-In . SVG Version: 6.00 Build 0)  -->
<svg version="1.1" id="Layer_1" xmlns="http://www.w3.org/2000/svg" xmlns:xlink="http://www.w3.org/1999/xlink" x="0px" y="0px"
	 viewBox="0 0 512 86.7" style="enable-background:new 0 0 512 86.7;" xml:space="preserve">
<style type="text/css">
	.st0{fill:#F54E2D;}
</style>
<g>
	<path class="st0" d="M7.8,41.9v-30L0,7.3V6.4h23.6v0.9l-8.2,4.6v29.5c0,14.4,4.8,21.2,16.2,21.2c12.2,0,16.9-7,16.9-21.2V11.9
		l-8.2-4.6V6.4h21v0.9l-7.8,4.6V42c0,16.4-7.7,25.1-22.5,25.1C14.4,67.1,7.8,60,7.8,41.9z"/>
	<path class="st0" d="M102.6,61.6v4.1H83.9v-4.1h5.9l0.5-0.5V43.8c0-7.9-1.6-10.6-8.4-10.6c-3.4,0-6.7,0.5-10.1,1.3v26.7l0.5,0.5
		h5.9v4.1H59.5v-4.1h5.5l0.5-0.5V36.3l-6.1-2.9V33l11-5.7l0.6,0.3l0.7,5.2c5.4-3.5,9.7-5.4,13.2-5.4c8.2,0,11.9,3.8,11.9,10.7v23.1
		l0.5,0.5H102.6z"/>
	<path class="st0" d="M109.2,43.7c0-4.7,4-8.7,8.7-8.7c4.7,0,8.6,3.9,8.6,8.7c0,4.6-3.9,8.6-8.6,8.6
		C113.3,52.3,109.2,48.2,109.2,43.7z"/>
	<path class="st0" d="M173.2,40c0,15.3-9.3,26.7-20.5,26.7c-2.6,0-4.9-0.6-7-1.7L143,80.2l0.5,0.5h7.9l-1.1,6.1h-24.6l1.1-6.1h5.6
		l0.4-0.5l7.6-42.9l-5.8-3.6l0.2-1.2l15.3-7l1,0.6l-0.1,7.5c3.8-4.6,7.9-7.6,12.1-7.6C169.3,26,173.2,31.1,173.2,40z M162.3,41.4
		c0-5.6-1.8-7.8-4.6-7.8c-2.5,0-4.7,1.4-7.4,3.9l-3.6,20.5c1.3,2.6,3.1,3.7,5.2,3.7C158.1,61.8,162.3,53,162.3,41.4z"/>
	<path class="st0" d="M178.7,60.2c0-1.6,0.2-3.4,0.6-5.4l3.1-17.3l-5.8-3.7l0.2-1.1l16.7-7.3l1.2,0.6L189.9,53
		c-0.3,1.6-0.5,2.7-0.5,3.7c0,2.2,0.9,3.2,3.7,3.2c1.4,0,2.3-0.2,3.5-0.5l0.9,2.4c-2.7,2.2-7,4.9-11.4,4.9
		C181.6,66.7,178.7,64.6,178.7,60.2z M185.7,13.4c0-3.9,3.2-7.3,7.1-7.3c3.1,0,5.3,2.1,5.3,5.4c0,4-3.2,7.3-7.1,7.3
		C187.9,18.8,185.7,16.8,185.7,13.4z"/>
	<path class="st0" d="M227.7,57.1l0.9,2.4c-4.8,4.7-10.2,7.2-16.5,7.2c-7.3,0-12.5-4.8-12.5-14.8C199.6,36,209,26,221,26
		c6,0,10.2,3,10.2,8.1c0,6.7-5.1,12.1-20.9,16.2v0.8c0,5.9,2.3,8.8,6.8,8.8C220.8,59.9,224,58.9,227.7,57.1z M210.6,46.2
		c7.5-2.7,11.2-7.6,11.2-12.5c0-2.2-1.1-3.1-2.5-3.1C216.4,30.6,211.8,35.9,210.6,46.2z"/>
	<path class="st0" d="M239.1,43.7c0-4.7,4-8.7,8.7-8.7c4.7,0,8.6,3.9,8.6,8.7c0,4.6-3.9,8.6-8.6,8.6
		C243.2,52.3,239.1,48.2,239.1,43.7z"/>
	<path class="st0" d="M263.5,61.6h5.5l0.5-0.5v-52l-6.1-2.9V5.8l12-5.8l0.6,0.3v60.9l0.5,0.5h5.9v4.1h-18.7V61.6z"/>
	<path class="st0" d="M285.9,61.6h5.5l0.5-0.5V36.3l-6.1-2.9V33l12-5.6l0.6,0.3v33.5l0.5,0.5h5.5v4.1h-18.3V61.6z M289.4,13
		c0-2.7,2.3-5,5-5c2.6,0,4.9,2.3,4.9,5c0,2.6-2.3,4.9-4.9,4.9C291.7,17.9,289.4,15.6,289.4,13z"/>
	<path class="st0" d="M338.6,45.4h-25.2c0.1,12,6.3,16.3,14.5,16.3c3.5,0,6.8-0.9,9.4-2.3l1,1.9c-3.5,3.3-8.9,5.3-14.2,5.3
		c-11.1,0-17.8-8.4-17.8-18.8c0-13.4,9.7-20.5,18-20.5c7.6,0,14.4,4.5,14.4,15C338.8,43.3,338.7,44.3,338.6,45.4z M313.6,42.1h18.1
		c-0.2-7.6-3-11-7.9-11C319.4,31,314.5,33.9,313.6,42.1z"/>
	<path class="st0" d="M344.1,33.4l-5.1-4.1v-0.5h18.8v0.3l-5.9,4.3l10.2,24.3h0.4L373,33.4l-6.5-4.1v-0.5h15.3v0.3l-4.6,4.3
		l-14.9,33.2h-3.1L344.1,33.4z"/>
	<path class="st0" d="M415.8,61.6v4.1h-12.3V62c-4.3,2.9-8,4.7-12.1,4.7c-5.4,0-9.1-3.6-9.1-8.8c0-8.4,8.9-11.5,21.2-12.1V43
		c0-7.2-1.6-10.7-8.3-10.7c-4.2,0-7.4,1.4-10.6,3.5l-1.2-2.2c4.2-4,8.4-6.2,14.2-6.2c7.4,0,12.2,4.3,12.2,12v21.8l0.5,0.5H415.8z
		 M403.5,60.4V48.8c-7.8,0.6-14.7,1.8-14.7,7.9c0,3.6,2.5,5.2,5.9,5.2C397.6,61.9,400.9,61.3,403.5,60.4z"/>
	<path class="st0" d="M456.5,45.9c0,10.6-6,20.7-19.7,20.7c-5.5,0-10.1-1-14.9-3V9.1l-6.1-2.9V5.8l12-5.8l0.6,0.3v32.2
		c4.4-2.6,9.1-5.1,13.9-5.1C451.2,27.4,456.5,36.5,456.5,45.9z M449.5,47.9c0-8.5-3.2-15.2-11.1-15.2c-3.5,0-7.6,0.5-10,1.3v25.3
		c3.1,3,6.2,3.7,9.7,3.7C446,63,449.5,57.6,449.5,47.9z"/>
	<path class="st0" d="M458.9,61.6h5.5l0.5-0.5v-52l-6.1-2.9V5.8l12-5.8l0.6,0.3v60.9l0.5,0.5h5.9v4.1h-18.7V61.6z"/>
	<path class="st0" d="M511.8,45.4h-25.2c0.1,12,6.3,16.3,14.5,16.3c3.5,0,6.8-0.9,9.4-2.3l1,1.9c-3.5,3.3-8.9,5.3-14.2,5.3
		c-11.1,0-17.8-8.4-17.8-18.8c0-13.4,9.7-20.5,18-20.5c7.6,0,14.4,4.5,14.4,15C512,43.3,511.9,44.3,511.8,45.4z M486.8,42.1h18.1
		c-0.2-7.6-3-11-7.9-11C492.6,31,487.7,33.9,486.8,42.1z"/>
</g>
</svg>
