<?xml version="1.0" encoding="utf-8"?>
<!-- Generator: Adobe Illustrator 25.2.3, SVG Export Plug-In . SVG Version: 6.00 Build 0)  -->
<svg version="1.1" id="Layer_1" xmlns="http://www.w3.org/2000/svg" xmlns:xlink="http://www.w3.org/1999/xlink" x="0px" y="0px"
	 viewBox="0 0 86.7 512" style="enable-background:new 0 0 86.7 512;" xml:space="preserve">
<style type="text/css">
	.st0{fill:#F54E2D;}
</style>
<g>
	<path class="st0" d="M44.8,7.8h30L79.4,0h0.9v23.6h-0.9l-4.6-8.2H45.4c-14.4,0-21.2,4.8-21.2,16.2c0,12.2,7,16.9,21.2,16.9h29.5
		l4.6-8.2h0.9v21h-0.9l-4.6-7.8H44.7c-16.4,0-25.1-7.7-25.1-22.5C19.6,14.4,26.7,7.8,44.8,7.8z"/>
	<path class="st0" d="M25.1,102.6H21V83.9h4.1v5.9l0.5,0.5h17.3c7.9,0,10.6-1.6,10.6-8.4c0-3.4-0.5-6.7-1.3-10.1H25.6l-0.5,0.5v5.9
		H21V59.5h4.1v5.5l0.5,0.5h24.8l2.9-6.1h0.5l5.7,11l-0.3,0.6L54,71.6c3.5,5.4,5.4,9.7,5.4,13.2c0,8.2-3.8,11.9-10.7,11.9H25.6
		l-0.5,0.5V102.6z"/>
	<path class="st0" d="M43.1,109.2c4.7,0,8.7,4,8.7,8.7c0,4.7-3.9,8.6-8.7,8.6c-4.6,0-8.6-3.9-8.6-8.6
		C34.5,113.3,38.5,109.2,43.1,109.2z"/>
	<path class="st0" d="M46.7,173.2c-15.3,0-26.7-9.3-26.7-20.5c0-2.6,0.6-4.9,1.7-7L6.6,143l-0.5,0.5v7.9L0,150.2v-24.6l6.1,1.1v5.6
		l0.5,0.4l42.9,7.6l3.6-5.8l1.2,0.2l7,15.3l-0.6,1l-7.5-0.1c4.6,3.8,7.6,7.9,7.6,12.1C60.7,169.3,55.6,173.2,46.7,173.2z
		 M45.3,162.3c5.6,0,7.8-1.8,7.8-4.6c0-2.5-1.4-4.7-3.9-7.4l-20.5-3.6c-2.6,1.3-3.7,3.1-3.7,5.2C24.9,158.1,33.7,162.3,45.3,162.3z"
		/>
	<path class="st0" d="M26.6,178.7c1.6,0,3.4,0.2,5.4,0.6l17.3,3.1l3.7-5.8l1.1,0.2l7.3,16.7l-0.6,1.2l-26.9-4.8
		c-1.6-0.3-2.7-0.5-3.7-0.5c-2.2,0-3.2,0.9-3.2,3.7c0,1.4,0.2,2.3,0.5,3.5l-2.4,0.9c-2.2-2.7-4.9-7-4.9-11.4
		C20.1,181.6,22.1,178.7,26.6,178.7z M73.3,185.7c3.9,0,7.3,3.2,7.3,7.1c0,3.1-2.1,5.3-5.4,5.3c-4,0-7.3-3.2-7.3-7.1
		C67.9,187.9,69.9,185.7,73.3,185.7z"/>
	<path class="st0" d="M29.7,227.7l-2.4,0.9c-4.7-4.8-7.2-10.2-7.2-16.5c0-7.3,4.8-12.5,14.8-12.5c15.9,0,25.8,9.4,25.8,21.5
		c0,6-3,10.2-8.1,10.2c-6.7,0-12.1-5.1-16.2-20.9h-0.8c-5.9,0-8.8,2.3-8.8,6.8C26.8,220.8,27.8,224,29.7,227.7z M40.5,210.6
		c2.7,7.5,7.6,11.2,12.5,11.2c2.2,0,3.1-1.1,3.1-2.5C56.2,216.4,50.9,211.8,40.5,210.6z"/>
	<path class="st0" d="M43.1,239.1c4.7,0,8.7,4,8.7,8.7c0,4.7-3.9,8.6-8.7,8.6c-4.6,0-8.6-3.9-8.6-8.6
		C34.5,243.2,38.5,239.1,43.1,239.1z"/>
	<path class="st0" d="M25.1,263.5v5.5l0.5,0.5h52l2.9-6.1H81l5.8,12l-0.3,0.6H25.6l-0.5,0.5v5.9H21v-18.7H25.1z"/>
	<path class="st0" d="M25.1,285.9v5.5l0.5,0.5h24.8l2.9-6.1h0.5l5.6,12l-0.3,0.6H25.6l-0.5,0.5v5.5H21v-18.3H25.1z M73.8,289.4
		c2.7,0,5,2.3,5,5c0,2.6-2.3,4.9-5,4.9c-2.6,0-4.9-2.3-4.9-4.9C68.8,291.7,71.1,289.4,73.8,289.4z"/>
	<path class="st0" d="M41.4,338.6v-25.2c-12,0.1-16.3,6.3-16.3,14.5c0,3.5,0.9,6.8,2.3,9.4l-1.9,1c-3.3-3.5-5.3-8.9-5.3-14.2
		c0-11.1,8.4-17.8,18.8-17.8c13.4,0,20.5,9.7,20.5,18c0,7.6-4.5,14.4-15,14.4C43.5,338.8,42.5,338.7,41.4,338.6z M44.6,313.6v18.1
		c7.6-0.2,11-3,11-7.9C55.7,319.4,52.9,314.5,44.6,313.6z"/>
	<path class="st0" d="M53.3,344.1l4.1-5.1h0.5v18.8h-0.3l-4.3-5.9L29,362.1v0.4L53.3,373l4.1-6.5h0.5v15.3h-0.3l-4.3-4.6l-33.2-14.9
		v-3.1L53.3,344.1z"/>
	<path class="st0" d="M25.1,415.8H21v-12.3h3.7c-2.9-4.3-4.7-8-4.7-12.1c0-5.4,3.6-9.1,8.8-9.1c8.4,0,11.5,8.9,12.1,21.2h2.8
		c7.2,0,10.7-1.6,10.7-8.3c0-4.2-1.4-7.4-3.5-10.6l2.2-1.2c4,4.2,6.2,8.4,6.2,14.2c0,7.4-4.3,12.2-12,12.2H25.6l-0.5,0.5V415.8z
		 M26.4,403.5H38c-0.6-7.8-1.8-14.7-7.9-14.7c-3.6,0-5.2,2.5-5.2,5.9C24.8,397.6,25.5,400.9,26.4,403.5z"/>
	<path class="st0" d="M40.8,456.5c-10.6,0-20.7-6-20.7-19.7c0-5.5,1-10.1,3-14.9h54.5l2.9-6.1H81l5.8,12l-0.3,0.6H54.2
		c2.6,4.4,5.1,9.1,5.1,13.9C59.3,451.2,50.2,456.5,40.8,456.5z M38.8,449.5c8.5,0,15.2-3.2,15.2-11.1c0-3.5-0.5-7.6-1.3-10H27.4
		c-3,3.1-3.7,6.2-3.7,9.7C23.7,446,29.1,449.5,38.8,449.5z"/>
	<path class="st0" d="M25.1,458.9v5.5l0.5,0.5h52l2.9-6.1H81l5.8,12l-0.3,0.6H25.6l-0.5,0.5v5.9H21v-18.7H25.1z"/>
	<path class="st0" d="M41.4,511.8v-25.2c-12,0.1-16.3,6.3-16.3,14.5c0,3.5,0.9,6.8,2.3,9.4l-1.9,1c-3.3-3.5-5.3-8.9-5.3-14.2
		c0-11.1,8.4-17.8,18.8-17.8c13.4,0,20.5,9.7,20.5,18c0,7.6-4.5,14.4-15,14.4C43.5,512,42.5,511.9,41.4,511.8z M44.6,486.8v18.1
		c7.6-0.2,11-3,11-7.9C55.7,492.6,52.9,487.7,44.6,486.8z"/>
</g>
</svg>
