<?xml version="1.0" encoding="utf-8"?>
<!-- Generator: Adobe Illustrator 25.2.3, SVG Export Plug-In . SVG Version: 6.00 Build 0)  -->
<svg version="1.1" id="Layer_1" xmlns="http://www.w3.org/2000/svg" xmlns:xlink="http://www.w3.org/1999/xlink" x="0px" y="0px"
	 viewBox="0 0 512 498.3" style="enable-background:new 0 0 512 498.3;" xml:space="preserve">
<g>
	<path id="unpielievable-icon-path" d="M213.8,96.6C208.5,42.4,162.8,0,107.2,0C48,0,0,48,0,107.2c0,59.2,48,107.2,107.2,107.2c22.3,0,43-6.8,60.2-18.5
		l-29.7-70.5C161.5,111,187.3,101.5,213.8,96.6z"/>
	<path id="unpielievable-icon-path" d="M404.8,0c-55.6,0-101.3,42.4-106.6,96.6c26.5,4.9,52.3,14.5,76.2,28.8l-29.7,70.5c17.2,11.7,37.9,18.5,60.2,18.5
		c59.2,0,107.2-48,107.2-107.2C512,48,464,0,404.8,0z"/>
	<path id="unpielievable-icon-path" d="M209.2,294.9c-35.7,17.4-60.4,53.9-60.4,96.3c0,59.2,48,107.2,107.2,107.2s107.2-48,107.2-107.2
		c0-42.4-24.7-78.9-60.4-96.3L256,405.8L209.2,294.9z"/>
</g>
</svg>
